<svg xmlns="http://www.w3.org/2000/svg" width="256" height="256" viewBox="0 0 256 256"><defs><radialGradient id="g" cx="40%" cy="35%" r="70%"><stop offset="0" stop-color="#FFF3B0"/><stop offset=".55" stop-color="#F5C542"/><stop offset="1" stop-color="#C88A12"/></radialGradient>
<linearGradient id="n" x1="0" y1="0" x2="0" y2="1"><stop offset="0" stop-color="#2A3F8F"/><stop offset="1" stop-color="#121D4A"/></linearGradient></defs><path d="M150,30 A100,100 0 1,0 226,170 A80,80 0 1,1 150,30Z" fill="url(#n)" stroke="#5A3A00" stroke-width="8" stroke-linejoin="round"/><circle cx="160" cy="120" r="50" fill="url(#g)" stroke="#5A3A00" stroke-width="8" stroke-linejoin="round"/><circle cx="160" cy="120" r="36.0" fill="none" stroke="#B87A0A" stroke-width="6"/><polygon points="160.0,95.0 166.6,110.9 183.8,112.3 170.7,123.5 174.7,140.2 160.0,131.2 145.3,140.2 149.3,123.5 136.2,112.3 153.4,110.9" fill="#FFF8D6" /><path d="M70,46 Q70,60 84,60 Q70,60 70,74 Q70,60 56,60 Q70,60 70,46Z" fill="#FFFFFF"/><path d="M215,33 Q215,45 227,45 Q215,45 215,57 Q215,45 203,45 Q215,45 215,33Z" fill="#FFFFFF"/></svg>